<?xml version="1.0" standalone="no"?>
<!DOCTYPE svg PUBLIC "-//W3C//DTD SVG 20010904//EN"
 "http://www.w3.org/TR/2001/REC-SVG-20010904/DTD/svg10.dtd">
<svg version="1.0" xmlns="http://www.w3.org/2000/svg"
 width="145.000000pt" height="129.000000pt" viewBox="0 0 145.000000 129.000000"
 preserveAspectRatio="xMidYMid meet">

<g transform="translate(0.000000,129.000000) scale(0.100000,-0.100000)"
fill="#000000" stroke="none">
<path d="M0 645 l0 -645 725 0 725 0 0 645 0 645 -725 0 -725 0 0 -645z m801
445 c184 -35 329 -184 361 -370 41 -238 -130 -471 -375 -512 -289 -48 -556
220 -508 510 43 251 277 418 522 372z"/>
<path d="M630 1070 c-116 -25 -242 -124 -293 -231 -58 -123 -57 -249 2 -376
78 -166 270 -267 448 -234 175 32 306 152 349 321 52 204 -64 424 -264 500
-63 24 -178 33 -242 20z m-38 -277 l58 -57 0 32 c0 18 5 32 10 32 6 0 10 -22
10 -50 l0 -50 -50 0 c-27 0 -50 5 -50 10 0 6 14 10 32 10 l32 0 -57 58 c-31
32 -57 61 -57 65 0 16 17 4 72 -50z m328 50 c0 -4 -26 -33 -57 -65 l-57 -58
32 0 c18 0 32 -4 32 -10 0 -5 -22 -10 -50 -10 l-50 0 0 50 c0 28 5 50 10 50 6
0 10 -15 10 -32 l0 -33 57 58 c55 54 73 67 73 50z m-250 -293 c0 -27 -4 -50
-10 -50 -5 0 -10 14 -10 32 l0 32 -60 -59 c-33 -32 -63 -56 -67 -52 -4 4 20
34 52 67 l59 60 -32 0 c-18 0 -32 5 -32 10 0 6 23 10 50 10 l50 0 0 -50z m200
40 c0 -5 -14 -10 -32 -10 l-32 0 59 -60 c32 -33 56 -63 52 -67 -4 -4 -34 20
-67 52 l-60 59 0 -32 c0 -18 -4 -32 -10 -32 -5 0 -10 23 -10 50 l0 50 50 0
c28 0 50 -4 50 -10z"/>
</g>
</svg>
