<svg xmlns="http://www.w3.org/2000/svg" version="1.0" width="53" height="55" preserveAspectRatio="xMidYMid meet">
    <rect id="backgroundrect" width="100%" height="100%" x="0" y="0" fill="none" stroke="none"/>

    <g class="currentLayer">
        <title>Layer 1</title>
        <path fill="#3fbf65" fill-opacity="1" stroke="#3fbf65" stroke-opacity="1" stroke-width="1" stroke-dasharray="none" stroke-linejoin="round" stroke-linecap="butt" stroke-dashoffset="" fill-rule="nonzero" opacity="1" marker-start="" marker-mid="" marker-end="" d="M2.1489361822605133,28 C2.1489361822605133,14.187845303867404 13.113024580050569,3.000000000000001 26.648936182260513,3.000000000000001 C40.184847784470456,3.000000000000001 51.14893618226051,14.187845303867404 51.14893618226051,28 C51.14893618226051,41.812154696132595 40.184847784470456,53 26.648936182260513,53 C13.113024580050569,53 2.1489361822605133,41.812154696132595 2.1489361822605133,28 z" id="svg_1" class=""/>
        <path fill="#ffffff" fill-opacity="1" stroke="#ffffff" stroke-opacity="1" stroke-width="1" stroke-dasharray="none" stroke-linejoin="round" stroke-linecap="butt" stroke-dashoffset="" fill-rule="nonzero" opacity="1" marker-start="" marker-mid="" marker-end="" d="M12.914895743131638,22.66666555404663 C12.914895743131638,18.2467760512842 16.495006240369207,14.66666555404663 20.914895743131638,14.66666555404663 C25.334785245894068,14.66666555404663 28.914895743131638,18.2467760512842 28.914895743131638,22.66666555404663 C28.914895743131638,27.08655505680906 25.334785245894068,30.66666555404663 20.914895743131638,30.66666555404663 C16.495006240369207,30.66666555404663 12.914895743131638,27.08655505680906 12.914895743131638,22.66666555404663 z" class="" id="svg_2" filter=""/>
        <path fill="#ffffff" fill-opacity="1" stroke="#ffffff" stroke-opacity="1" stroke-width="1" stroke-dasharray="none" stroke-linejoin="round" stroke-linecap="butt" stroke-dashoffset="" fill-rule="nonzero" opacity="1" marker-start="" marker-mid="" marker-end="" d="M27.918442462849143,26.936167768112114 L27.918442462849143,32.04255060868442 " id="svg_5" class="" transform="rotate(-45.93920135498047 27.918443679809574,29.489358901977536) "/>
        <rect fill="#ffffff" stroke="#ffffff" stroke-linejoin="round" stroke-dashoffset="" fill-rule="nonzero" x="32.52482223510742" y="28.56737518310547" width="5" height="15" style="color: rgb(63, 191, 101);" class="" transform="rotate(-48.32724380493164 35.02482604980469,36.0673713684082) " id="svg_6"/>
        <rect fill="#ffffff" stroke="#ffffff" stroke-linejoin="round" stroke-dashoffset="" fill-rule="nonzero" id="svg_9" x="27.148935317993164" y="33" width="4" height="0" style="color: rgb(63, 191, 101);" class=""/>
    </g>
</svg>
