<svg xmlns="http://www.w3.org/2000/svg" version="1.0" width="53" height="55" preserveAspectRatio="xMidYMid meet">
    <rect id="backgroundrect" width="100%" height="100%" x="0" y="0" fill="none" stroke="none"/>

    <g class="currentLayer">
        <title>Layer 1</title>
        <path fill="none" fill-opacity="1" stroke="#ffffff" stroke-opacity="1" stroke-width="1" stroke-dasharray="none" stroke-linejoin="miter" stroke-linecap="butt" stroke-dashoffset="" fill-rule="nonzero" opacity="1" marker-start="" marker-mid="" marker-end="" d="M1.0283689498901367,27.51063871383667 C1.0283689498901367,13.114650923902817 12.400298318810226,1.4539008140563965 26.439717292785645,1.4539008140563965 C40.47913626676106,1.4539008140563965 51.85106563568115,13.114650923902817 51.85106563568115,27.51063871383667 C51.85106563568115,41.90662650377052 40.47913626676106,53.56737661361694 26.439717292785645,53.56737661361694 C12.400298318810226,53.56737661361694 1.0283689498901367,41.90662650377052 1.0283689498901367,27.51063871383667 z" id="svg_1" class=""/>
        <path fill="none" fill-opacity="1" stroke="#ffffff" stroke-opacity="1" stroke-width="1" stroke-dasharray="none" stroke-linejoin="miter" stroke-linecap="butt" stroke-dashoffset="0" fill-rule="nonzero" opacity="1" marker-start="" marker-mid="" marker-end="" d="M9.680851221084595,27.65248291927351 C9.680851221084595,18.271972279967624 17.21241418731661,10.673758662129856 26.510640071553667,10.673758662129856 C35.80886595579072,10.673758662129856 43.34042892202274,18.271972279967624 43.34042892202274,27.65248291927351 C43.34042892202274,37.03299355857939 35.80886595579072,44.63120717641716 26.510640071553667,44.63120717641716 C17.21241418731661,44.63120717641716 9.680851221084595,37.03299355857939 9.680851221084595,27.65248291927351 z" class="" id="svg_4"/>
        <path fill="#ffffff" stroke="#ffffff" stroke-dashoffset="" fill-rule="nonzero" marker-start="" marker-mid="" marker-end="" id="svg_5" d="M39.29487290618559,16.614261819280728 L36.5823680780573,11.534335877201089 L41.459538926339675,16.614261819280728 L36.5823680780573,21.694185033832007 L39.29487290618559,16.614261819280728 z" style="color: rgb(0, 0, 0);" class="" transform="rotate(50.23128128051758 39.020950317382805,16.61426162719727) " fill-opacity="1" stroke-linecap="butt" stroke-linejoin="round"/>
        <path fill="#ffffff" stroke="#fffffff" stroke-dashoffset="" fill-rule="nonzero" marker-start="" marker-mid="" marker-end="" d="M14.188491281248531,38.74192134872828 L11.475986453120242,33.66199540664864 L16.353157301402618,38.74192134872828 L11.475986453120242,43.82184456327956 L14.188491281248531,38.74192134872828 z" style="color: rgb(0, 0, 0);" class="" transform="rotate(-124.7992172241211 13.914571762084957,38.7419204711914) " fill-opacity="1" stroke-linecap="butt" stroke-linejoin="round" id="svg_2"/>
    </g>
</svg>
